<svg width="14" height="14" viewBox="0 0 14 14" fill="none" xmlns="http://www.w3.org/2000/svg">
<g clip-path="url(#clip0_1_10912)">
<rect width="14" height="14" fill="white" fill-opacity="0.01"/>
<path d="M7.80926 6.99927L11.9108 2.11021C11.9796 2.02896 11.9218 1.90552 11.8155 1.90552H10.5686C10.4952 1.90552 10.4249 1.93833 10.3764 1.99458L6.99363 6.02739L3.61082 1.99458C3.56394 1.93833 3.49363 1.90552 3.41863 1.90552H2.17176C2.06551 1.90552 2.00769 2.02896 2.07644 2.11021L6.17801 6.99927L2.07644 11.8883C2.06104 11.9064 2.05116 11.9286 2.04798 11.9521C2.04479 11.9757 2.04843 11.9997 2.05846 12.0212C2.0685 12.0428 2.08451 12.061 2.10459 12.0737C2.12467 12.0865 2.14798 12.0931 2.17176 12.093H3.41863C3.49207 12.093 3.56238 12.0602 3.61082 12.004L6.99363 7.97114L10.3764 12.004C10.4233 12.0602 10.4936 12.093 10.5686 12.093H11.8155C11.9218 12.093 11.9796 11.9696 11.9108 11.8883L7.80926 6.99927Z" fill="#BFBFBF"/>
</g>
<defs>
<clipPath id="clip0_1_10912">
<rect width="14" height="14" fill="white"/>
</clipPath>
</defs>
</svg>
