<svg width="14" height="14" viewBox="0 0 14 14" fill="none" xmlns="http://www.w3.org/2000/svg">
<g clip-path="url(#clip0_85_10168)">
<path fill-rule="evenodd" clip-rule="evenodd" d="M7.00005 12.0556C9.79216 12.0556 12.0556 9.79216 12.0556 7.00005C12.0556 4.20795 9.79216 1.9445 7.00005 1.9445C4.20795 1.9445 1.9445 4.20795 1.9445 7.00005C1.9445 9.79216 4.20795 12.0556 7.00005 12.0556ZM7.00005 13.2223C10.4365 13.2223 13.2223 10.4365 13.2223 7.00005C13.2223 3.56362 10.4365 0.777832 7.00005 0.777832C3.56362 0.777832 0.777832 3.56362 0.777832 7.00005C0.777832 10.4365 3.56362 13.2223 7.00005 13.2223Z" fill="current" fill-opacity="1"/>
<path fill-rule="evenodd" clip-rule="evenodd" d="M7.00011 8.16678C7.64444 8.16678 8.16678 7.64444 8.16678 7.00011C8.16678 6.35578 7.64444 5.83344 7.00011 5.83344C6.35578 5.83344 5.83344 6.35578 5.83344 7.00011C5.83344 7.64444 6.35578 8.16678 7.00011 8.16678ZM7.00011 8.94455C8.074 8.94455 8.94455 8.074 8.94455 7.00011C8.94455 5.92622 8.074 5.05566 7.00011 5.05566C5.92622 5.05566 5.05566 5.92622 5.05566 7.00011C5.05566 8.074 5.92622 8.94455 7.00011 8.94455Z" fill="current" fill-opacity="1"/>
<path d="M7.77772 7.00007C7.77772 7.42962 7.4295 7.77785 6.99995 7.77785C6.57039 7.77785 6.22217 7.42962 6.22217 7.00007C6.22217 6.57051 6.57039 6.22229 6.99995 6.22229C7.4295 6.22229 7.77772 6.57051 7.77772 7.00007Z" fill="black" fill-opacity="1"/>
<path fill-rule="evenodd" clip-rule="evenodd" d="M7.00016 10.8889C9.14794 10.8889 10.8891 9.14782 10.8891 7.00004C10.8891 4.85227 9.14794 3.11115 7.00016 3.11115C4.85239 3.11115 3.11127 4.85227 3.11127 7.00004C3.11127 9.14782 4.85239 10.8889 7.00016 10.8889ZM7.00016 11.6667C9.57749 11.6667 11.6668 9.57737 11.6668 7.00004C11.6668 4.42271 9.57749 2.33337 7.00016 2.33337C4.42283 2.33337 2.3335 4.42271 2.3335 7.00004C2.3335 9.57737 4.42283 11.6667 7.00016 11.6667Z" fill="current" fill-opacity="1"/>
</g>
<defs>
<clipPath id="clip0_85_10168">
<rect width="14" height="14" fill="white"/>
</clipPath>
</defs>
</svg>
