<svg width="14" height="14" viewBox="0 0 14 14" fill="none" xmlns="http://www.w3.org/2000/svg">
<g clip-path="url(#clip0_16_11010)">
<rect width="14" height="14" fill="white" fill-opacity="0.01"/>
<g clip-path="url(#clip1_16_11010)">
<path d="M13.2125 12.3538L9.15469 8.29595C9.78438 7.48188 10.125 6.48657 10.125 5.4397C10.125 4.18657 9.63594 3.01157 8.75156 2.12563C7.86719 1.2397 6.68906 0.752197 5.4375 0.752197C4.18594 0.752197 3.00781 1.24126 2.12344 2.12563C1.2375 3.01001 0.75 4.18657 0.75 5.4397C0.75 6.69126 1.23906 7.86938 2.12344 8.75376C3.00781 9.6397 4.18438 10.1272 5.4375 10.1272C6.48438 10.1272 7.47813 9.78657 8.29219 9.15845L12.35 13.2147C12.3619 13.2266 12.376 13.236 12.3916 13.2425C12.4071 13.2489 12.4238 13.2523 12.4406 13.2523C12.4575 13.2523 12.4741 13.2489 12.4897 13.2425C12.5052 13.236 12.5194 13.2266 12.5312 13.2147L13.2125 12.535C13.2244 12.5231 13.2338 12.509 13.2403 12.4934C13.2467 12.4779 13.2501 12.4612 13.2501 12.4444C13.2501 12.4276 13.2467 12.4109 13.2403 12.3953C13.2338 12.3798 13.2244 12.3657 13.2125 12.3538ZM7.9125 7.9147C7.25 8.57563 6.37187 8.9397 5.4375 8.9397C4.50312 8.9397 3.625 8.57563 2.9625 7.9147C2.30156 7.2522 1.9375 6.37407 1.9375 5.4397C1.9375 4.50532 2.30156 3.62563 2.9625 2.9647C3.625 2.30376 4.50312 1.9397 5.4375 1.9397C6.37187 1.9397 7.25156 2.3022 7.9125 2.9647C8.57344 3.6272 8.9375 4.50532 8.9375 5.4397C8.9375 6.37407 8.57344 7.25376 7.9125 7.9147Z" fill="white"/>
</g>
</g>
<defs>
<clipPath id="clip0_16_11010">
<rect width="14" height="14" fill="white"/>
</clipPath>
<clipPath id="clip1_16_11010">
<rect width="14" height="14" fill="white"/>
</clipPath>
</defs>
</svg>
