<svg width="9" height="10" viewBox="0 0 9 10" fill="none" xmlns="http://www.w3.org/2000/svg">
<g clip-path="url(#clip0_16_11154)">
<path d="M6.55678 1.83044V1.06475C6.55678 0.998389 6.4805 0.961739 6.429 1.00235L1.96365 4.49004C1.92571 4.51954 1.89501 4.55732 1.87389 4.6005C1.85277 4.64367 1.8418 4.6911 1.8418 4.73916C1.8418 4.78722 1.85277 4.83465 1.87389 4.87782C1.89501 4.92099 1.92571 4.95877 1.96365 4.98828L6.429 8.47596C6.48149 8.51658 6.55678 8.47993 6.55678 8.41356V7.64787C6.55678 7.59934 6.53399 7.55278 6.49635 7.52307L2.93041 4.73965L6.49635 1.95525C6.53399 1.92553 6.55678 1.87898 6.55678 1.83044Z" fill="#D9D9D9"/>
</g>
<defs>
<clipPath id="clip0_16_11154">
<rect width="8.87522" height="8.87522" fill="white" transform="translate(0.019043 0.302246)"/>
</clipPath>
</defs>
</svg>
