<svg width="236" height="105" viewBox="0 0 236 105" fill="none" xmlns="http://www.w3.org/2000/svg">
<path d="M105.432 43.8339L92.8087 50.5559L118.056 64L143.304 50.5559L130.68 43.8339L118.056 50.5559L105.432 43.8339Z" fill="black" fill-opacity="0.8"/>
<path d="M109.958 41.9133L118.056 37.592L126.154 41.9133L118.056 46.2346L109.958 41.9133Z" fill="black" fill-opacity="0.8"/>
<path d="M89.4572 46.8361C86.9735 41.8972 85.7931 36.397 86.0297 30.865C86.2662 25.333 87.9118 19.9555 90.8079 15.2503C93.7039 10.5451 97.7531 6.67061 102.565 3.99986C107.378 1.32912 112.791 -0.0479356 118.284 0.00127407C123.778 0.0504837 129.166 1.5243 133.93 4.28083C138.695 7.03737 142.675 10.9838 145.488 15.7401C148.3 20.4965 149.851 25.9026 149.99 31.4379C150.129 36.9733 148.852 42.4515 146.281 47.3451L128.654 37.939C129.622 36.0955 130.103 34.0317 130.051 31.9464C129.999 29.8612 129.415 27.8246 128.355 26.0328C127.296 24.241 125.796 22.7543 124.001 21.7159C122.206 20.6775 120.177 20.1222 118.107 20.1037C116.038 20.0852 113.998 20.6039 112.185 21.6101C110.373 22.6162 108.847 24.0758 107.756 25.8483C106.665 27.6208 106.045 29.6466 105.956 31.7306C105.867 33.8146 106.312 35.8866 107.247 37.7472L89.4572 46.8361Z" fill="black" fill-opacity="0.8"/>
<path d="M24.3117 89.8409V91.1785C24.3117 93.3238 24.0176 95.2493 23.4294 96.9552C22.8412 98.6611 22.0112 100.115 20.9394 101.317C19.8676 102.506 18.5867 103.417 17.0966 104.05C15.6196 104.683 13.9792 105 12.1755 105C10.3848 105 8.74437 104.683 7.2543 104.05C5.7773 103.417 4.49636 102.506 3.41148 101.317C2.3266 100.115 1.48354 98.6611 0.88228 96.9552C0.294093 95.2493 0 93.3238 0 91.1785V89.8409C0 87.6827 0.294093 85.7571 0.88228 84.0642C1.47047 82.3583 2.30046 80.9044 3.37227 79.7025C4.45715 78.5007 5.73809 77.5831 7.21509 76.9499C8.70516 76.3166 10.3455 76 12.1362 76C13.94 76 15.5804 76.3166 17.0574 76.9499C18.5475 77.5831 19.8284 78.5007 20.9002 79.7025C21.9851 80.9044 22.8216 82.3583 23.4098 84.0642C24.0111 85.7571 24.3117 87.6827 24.3117 89.8409ZM18.371 91.1785V89.8021C18.371 88.303 18.2338 86.9848 17.9593 85.8476C17.6848 84.7103 17.2796 83.754 16.7437 82.9786C16.2078 82.2032 15.5543 81.6217 14.7831 81.234C14.0119 80.8333 13.1296 80.633 12.1362 80.633C11.1429 80.633 10.2606 80.8333 9.48941 81.234C8.7313 81.6217 8.0843 82.2032 7.54839 82.9786C7.02556 83.754 6.6269 84.7103 6.35241 85.8476C6.07793 86.9848 5.94068 88.303 5.94068 89.8021V91.1785C5.94068 92.6647 6.07793 93.9828 6.35241 95.133C6.6269 96.2703 7.0321 97.2331 7.568 98.0214C8.1039 98.7968 8.75744 99.3848 9.52862 99.7854C10.2998 100.186 11.1821 100.386 12.1755 100.386C13.1688 100.386 14.0511 100.186 14.8223 99.7854C15.5935 99.3848 16.2405 98.7968 16.7633 98.0214C17.2861 97.2331 17.6848 96.2703 17.9593 95.133C18.2338 93.9828 18.371 92.6647 18.371 91.1785Z" fill="black" fill-opacity="0.8"/>
<path d="M51.78 76.3877V104.612H45.8981L34.4285 85.6925V104.612H28.5466V76.3877H34.4285L45.9178 95.3269V76.3877H51.78Z" fill="black" fill-opacity="0.8"/>
<path d="M78.6013 76.3877V104.612H72.7391V76.3877H78.6013ZM87.3849 76.3877V80.9432H64.0927V76.3877H87.3849Z" fill="black" fill-opacity="0.8"/>
<path d="M109.775 87.883V92.4191H94.8745V87.883H109.775ZM96.6194 76.3877V104.612H90.7376V76.3877H96.6194ZM113.971 76.3877V104.612H108.109V76.3877H113.971Z" fill="black" fill-opacity="0.8"/>
<path d="M138.243 100.076V104.612H123.049V100.076H138.243ZM124.97 76.3877V104.612H119.088V76.3877H124.97ZM136.263 87.883V92.3028H123.049V87.883H136.263ZM138.224 76.3877V80.9432H123.049V76.3877H138.224Z" fill="black" fill-opacity="0.8"/>
<path d="M154.36 76.3877H159.34L166.672 97.1103L174.005 76.3877H178.985L168.672 104.612H164.673L154.36 76.3877ZM151.674 76.3877H156.634L157.536 96.5869V104.612H151.674V76.3877ZM176.711 76.3877H181.691V104.612H175.809V96.5869L176.711 76.3877Z" fill="black" fill-opacity="0.8"/>
<path d="M198.807 81.2146L191.043 104.612H184.789L195.396 76.3877H199.376L198.807 81.2146ZM205.257 104.612L197.474 81.2146L196.846 76.3877H200.866L211.531 104.612H205.257ZM204.905 94.1056V98.6611H189.827V94.1056H204.905Z" fill="black" fill-opacity="0.8"/>
<path d="M225.295 94.5515H218.021V90.0154H225.295C226.419 90.0154 227.334 89.8344 228.04 89.4726C228.746 89.0978 229.262 88.5809 229.589 87.9218C229.916 87.2627 230.079 86.5196 230.079 85.6925C230.079 84.8525 229.916 84.0706 229.589 83.3469C229.262 82.6232 228.746 82.0417 228.04 81.6023C227.334 81.1629 226.419 80.9432 225.295 80.9432H220.06V104.612H214.178V76.3877H225.295C227.53 76.3877 229.445 76.7883 231.04 77.5896C232.647 78.3779 233.876 79.4699 234.726 80.8656C235.575 82.2614 236 83.8574 236 85.6537C236 87.4759 235.575 89.0526 234.726 90.3837C233.876 91.7148 232.647 92.7422 231.04 93.4659C229.445 94.1896 227.53 94.5515 225.295 94.5515Z" fill="black" fill-opacity="0.8"/>
</svg>
