<svg width="18" height="19" viewBox="0 0 18 19" fill="none" xmlns="http://www.w3.org/2000/svg">
<g clip-path="url(#clip0_147_11132)">
<path d="M3.01099 9.27613C3.01099 8.92222 3.1357 8.62055 3.38512 8.37113C3.63792 8.12171 3.93958 7.997 4.29012 7.997C4.64404 7.997 4.9457 8.12171 5.19513 8.37113C5.44792 8.62055 5.57432 8.92222 5.57432 9.27613C5.57432 9.63004 5.44792 9.9334 5.19513 10.1862C4.9457 10.4356 4.64404 10.5603 4.29012 10.5603C3.93958 10.5603 3.63792 10.4356 3.38512 10.1862C3.1357 9.9334 3.01099 9.63004 3.01099 9.27613ZM8.12031 9.27613C8.12031 8.92222 8.24502 8.62055 8.49444 8.37113C8.74724 8.12171 9.0489 7.997 9.39945 7.997C9.75336 7.997 10.055 8.12171 10.3044 8.37113C10.5572 8.62055 10.6836 8.92222 10.6836 9.27613C10.6836 9.63004 10.5572 9.9334 10.3044 10.1862C10.055 10.4356 9.75336 10.5603 9.39945 10.5603C9.0489 10.5603 8.74724 10.4356 8.49444 10.1862C8.24502 9.9334 8.12031 9.63004 8.12031 9.27613ZM13.2296 9.27613C13.2296 8.92222 13.3543 8.62055 13.6038 8.37113C13.8566 8.12171 14.1582 7.997 14.5088 7.997C14.8627 7.997 15.1643 8.12171 15.4138 8.37113C15.6666 8.62055 15.793 8.92222 15.793 9.27613C15.793 9.63004 15.6666 9.9334 15.4138 10.1862C15.1643 10.4356 14.8627 10.5603 14.5088 10.5603C14.1582 10.5603 13.8566 10.4356 13.6038 10.1862C13.3543 9.9334 13.2296 9.63004 13.2296 9.27613Z" fill="black" fill-opacity="0.25"/>
</g>
<defs>
<clipPath id="clip0_147_11132">
<rect width="17.7504" height="17.7504" fill="white" transform="translate(0.165527 0.864624)"/>
</clipPath>
</defs>
</svg>
