<svg width="9" height="10" viewBox="0 0 9 10" fill="none" xmlns="http://www.w3.org/2000/svg">
<g clip-path="url(#clip0_16_11175)">
<path d="M6.97301 4.49044L2.50766 1.00276C2.49599 0.99357 2.48197 0.987861 2.46721 0.986286C2.45244 0.98471 2.43753 0.987331 2.42418 0.993848C2.41084 1.00036 2.39961 1.01051 2.39177 1.02313C2.38393 1.03574 2.37981 1.05031 2.37988 1.06516V1.83085C2.37988 1.87938 2.40267 1.92594 2.44031 1.95565L6.00625 4.74006L2.44031 7.52446C2.40168 7.55418 2.37988 7.60073 2.37988 7.64927V8.41496C2.37988 8.48132 2.45616 8.51797 2.50766 8.47736L6.97301 4.98967C7.01096 4.96007 7.04167 4.9222 7.06278 4.87895C7.0839 4.83569 7.09488 4.78819 7.09488 4.74006C7.09488 4.69192 7.0839 4.64442 7.06278 4.60117C7.04167 4.55792 7.01096 4.52005 6.97301 4.49044Z" fill="black" fill-opacity="0.8"/>
</g>
<defs>
<clipPath id="clip0_16_11175">
<rect width="8.87522" height="8.87522" fill="white" transform="translate(0.0224609 0.302246)"/>
</clipPath>
</defs>
</svg>
